<mxfile host="app.diagrams.net" modified="2021-01-29T20:04:36.370Z" agent="5.0 (Windows NT 10.0; Win64; x64) AppleWebKit/537.36 (KHTML, like Gecko) Chrome/88.0.4324.96 Safari/537.36 Edg/88.0.705.53" etag="Np5BHW83wRjahUQLc2Z2" version="14.2.9" type="github">
  <diagram id="C5RBs43oDa-KdzZeNtuy" name="Page-1">
    <mxGraphModel dx="2225" dy="810" grid="1" gridSize="10" guides="1" tooltips="1" connect="1" arrows="1" fold="1" page="1" pageScale="1" pageWidth="827" pageHeight="1169" math="0" shadow="0">
      <root>
        <mxCell id="WIyWlLk6GJQsqaUBKTNV-0" />
        <mxCell id="WIyWlLk6GJQsqaUBKTNV-1" parent="WIyWlLk6GJQsqaUBKTNV-0" />
        <mxCell id="wLUMQ3IqsmTJ5_Vhw1Fk-0" value="Initial Text:&lt;br&gt;&quot;see you at 8 for a drink&quot;" style="whiteSpace=wrap;html=1;aspect=fixed;" vertex="1" parent="WIyWlLk6GJQsqaUBKTNV-1">
          <mxGeometry x="374" y="60" width="80" height="80" as="geometry" />
        </mxCell>
        <mxCell id="wLUMQ3IqsmTJ5_Vhw1Fk-10" value="" style="edgeStyle=orthogonalEdgeStyle;rounded=0;orthogonalLoop=1;jettySize=auto;html=1;" edge="1" parent="WIyWlLk6GJQsqaUBKTNV-1" source="wLUMQ3IqsmTJ5_Vhw1Fk-1" target="wLUMQ3IqsmTJ5_Vhw1Fk-9">
          <mxGeometry relative="1" as="geometry" />
        </mxCell>
        <mxCell id="wLUMQ3IqsmTJ5_Vhw1Fk-1" value="text back: lets do it" style="rounded=1;whiteSpace=wrap;html=1;" vertex="1" parent="WIyWlLk6GJQsqaUBKTNV-1">
          <mxGeometry x="190" y="180" width="120" height="60" as="geometry" />
        </mxCell>
        <mxCell id="wLUMQ3IqsmTJ5_Vhw1Fk-8" value="" style="edgeStyle=orthogonalEdgeStyle;rounded=0;orthogonalLoop=1;jettySize=auto;html=1;" edge="1" parent="WIyWlLk6GJQsqaUBKTNV-1" source="wLUMQ3IqsmTJ5_Vhw1Fk-2" target="wLUMQ3IqsmTJ5_Vhw1Fk-7">
          <mxGeometry relative="1" as="geometry" />
        </mxCell>
        <mxCell id="wLUMQ3IqsmTJ5_Vhw1Fk-2" value="ignore" style="rounded=1;whiteSpace=wrap;html=1;" vertex="1" parent="WIyWlLk6GJQsqaUBKTNV-1">
          <mxGeometry x="500" y="180" width="120" height="60" as="geometry" />
        </mxCell>
        <mxCell id="wLUMQ3IqsmTJ5_Vhw1Fk-4" value="" style="endArrow=classic;html=1;entryX=0.5;entryY=0;entryDx=0;entryDy=0;" edge="1" parent="WIyWlLk6GJQsqaUBKTNV-1" target="wLUMQ3IqsmTJ5_Vhw1Fk-2">
          <mxGeometry width="50" height="50" relative="1" as="geometry">
            <mxPoint x="450" y="110" as="sourcePoint" />
            <mxPoint x="500" y="60" as="targetPoint" />
            <Array as="points">
              <mxPoint x="560" y="110" />
            </Array>
          </mxGeometry>
        </mxCell>
        <mxCell id="wLUMQ3IqsmTJ5_Vhw1Fk-6" value="" style="endArrow=classic;html=1;entryX=0.5;entryY=0;entryDx=0;entryDy=0;exitX=0;exitY=0.5;exitDx=0;exitDy=0;" edge="1" parent="WIyWlLk6GJQsqaUBKTNV-1" source="wLUMQ3IqsmTJ5_Vhw1Fk-0" target="wLUMQ3IqsmTJ5_Vhw1Fk-1">
          <mxGeometry width="50" height="50" relative="1" as="geometry">
            <mxPoint x="390" y="430" as="sourcePoint" />
            <mxPoint x="440" y="380" as="targetPoint" />
            <Array as="points">
              <mxPoint x="250" y="100" />
            </Array>
          </mxGeometry>
        </mxCell>
        <mxCell id="wLUMQ3IqsmTJ5_Vhw1Fk-29" value="" style="edgeStyle=orthogonalEdgeStyle;rounded=0;orthogonalLoop=1;jettySize=auto;html=1;" edge="1" parent="WIyWlLk6GJQsqaUBKTNV-1" source="wLUMQ3IqsmTJ5_Vhw1Fk-7" target="wLUMQ3IqsmTJ5_Vhw1Fk-28">
          <mxGeometry relative="1" as="geometry" />
        </mxCell>
        <mxCell id="wLUMQ3IqsmTJ5_Vhw1Fk-7" value="another text" style="rounded=1;whiteSpace=wrap;html=1;" vertex="1" parent="WIyWlLk6GJQsqaUBKTNV-1">
          <mxGeometry x="500" y="320" width="120" height="60" as="geometry" />
        </mxCell>
        <mxCell id="wLUMQ3IqsmTJ5_Vhw1Fk-12" value="" style="edgeStyle=orthogonalEdgeStyle;rounded=0;orthogonalLoop=1;jettySize=auto;html=1;" edge="1" parent="WIyWlLk6GJQsqaUBKTNV-1" source="wLUMQ3IqsmTJ5_Vhw1Fk-9" target="wLUMQ3IqsmTJ5_Vhw1Fk-11">
          <mxGeometry relative="1" as="geometry" />
        </mxCell>
        <mxCell id="wLUMQ3IqsmTJ5_Vhw1Fk-14" value="" style="edgeStyle=orthogonalEdgeStyle;rounded=0;orthogonalLoop=1;jettySize=auto;html=1;" edge="1" parent="WIyWlLk6GJQsqaUBKTNV-1" source="wLUMQ3IqsmTJ5_Vhw1Fk-9" target="wLUMQ3IqsmTJ5_Vhw1Fk-13">
          <mxGeometry relative="1" as="geometry" />
        </mxCell>
        <mxCell id="wLUMQ3IqsmTJ5_Vhw1Fk-9" value="getting tired." style="rounded=1;whiteSpace=wrap;html=1;" vertex="1" parent="WIyWlLk6GJQsqaUBKTNV-1">
          <mxGeometry x="190" y="320" width="120" height="60" as="geometry" />
        </mxCell>
        <mxCell id="wLUMQ3IqsmTJ5_Vhw1Fk-16" value="" style="edgeStyle=orthogonalEdgeStyle;rounded=0;orthogonalLoop=1;jettySize=auto;html=1;" edge="1" parent="WIyWlLk6GJQsqaUBKTNV-1" source="wLUMQ3IqsmTJ5_Vhw1Fk-11" target="wLUMQ3IqsmTJ5_Vhw1Fk-15">
          <mxGeometry relative="1" as="geometry" />
        </mxCell>
        <mxCell id="wLUMQ3IqsmTJ5_Vhw1Fk-11" value="knuckle through" style="rounded=1;whiteSpace=wrap;html=1;" vertex="1" parent="WIyWlLk6GJQsqaUBKTNV-1">
          <mxGeometry x="320" y="430" width="120" height="60" as="geometry" />
        </mxCell>
        <mxCell id="wLUMQ3IqsmTJ5_Vhw1Fk-18" value="" style="edgeStyle=orthogonalEdgeStyle;rounded=0;orthogonalLoop=1;jettySize=auto;html=1;" edge="1" parent="WIyWlLk6GJQsqaUBKTNV-1" source="wLUMQ3IqsmTJ5_Vhw1Fk-13" target="wLUMQ3IqsmTJ5_Vhw1Fk-17">
          <mxGeometry relative="1" as="geometry" />
        </mxCell>
        <mxCell id="wLUMQ3IqsmTJ5_Vhw1Fk-22" value="" style="edgeStyle=orthogonalEdgeStyle;rounded=0;orthogonalLoop=1;jettySize=auto;html=1;" edge="1" parent="WIyWlLk6GJQsqaUBKTNV-1" source="wLUMQ3IqsmTJ5_Vhw1Fk-13" target="wLUMQ3IqsmTJ5_Vhw1Fk-21">
          <mxGeometry relative="1" as="geometry" />
        </mxCell>
        <mxCell id="wLUMQ3IqsmTJ5_Vhw1Fk-13" value="get stressed out trying to weasel out" style="rounded=1;whiteSpace=wrap;html=1;" vertex="1" parent="WIyWlLk6GJQsqaUBKTNV-1">
          <mxGeometry x="60" y="430" width="120" height="60" as="geometry" />
        </mxCell>
        <mxCell id="wLUMQ3IqsmTJ5_Vhw1Fk-15" value="see the lads for that drink" style="rounded=1;whiteSpace=wrap;html=1;" vertex="1" parent="WIyWlLk6GJQsqaUBKTNV-1">
          <mxGeometry x="320" y="570" width="120" height="60" as="geometry" />
        </mxCell>
        <mxCell id="wLUMQ3IqsmTJ5_Vhw1Fk-17" value="start listing pros and cons out loud to no one in particular" style="rounded=1;whiteSpace=wrap;html=1;" vertex="1" parent="WIyWlLk6GJQsqaUBKTNV-1">
          <mxGeometry x="60" y="570" width="120" height="60" as="geometry" />
        </mxCell>
        <mxCell id="wLUMQ3IqsmTJ5_Vhw1Fk-19" value="" style="endArrow=classic;html=1;entryX=0;entryY=0.5;entryDx=0;entryDy=0;exitX=1;exitY=0.5;exitDx=0;exitDy=0;exitPerimeter=0;" edge="1" parent="WIyWlLk6GJQsqaUBKTNV-1" source="wLUMQ3IqsmTJ5_Vhw1Fk-13" target="wLUMQ3IqsmTJ5_Vhw1Fk-11">
          <mxGeometry width="50" height="50" relative="1" as="geometry">
            <mxPoint x="190" y="460" as="sourcePoint" />
            <mxPoint x="240" y="410" as="targetPoint" />
          </mxGeometry>
        </mxCell>
        <mxCell id="wLUMQ3IqsmTJ5_Vhw1Fk-21" value="staying up until 2am watching &quot;the scorpion king&quot;" style="rounded=1;whiteSpace=wrap;html=1;" vertex="1" parent="WIyWlLk6GJQsqaUBKTNV-1">
          <mxGeometry x="-130" y="790" width="120" height="60" as="geometry" />
        </mxCell>
        <mxCell id="wLUMQ3IqsmTJ5_Vhw1Fk-24" value="" style="endArrow=classic;html=1;entryX=1;entryY=0.5;entryDx=0;entryDy=0;exitX=0.5;exitY=1;exitDx=0;exitDy=0;" edge="1" parent="WIyWlLk6GJQsqaUBKTNV-1" source="wLUMQ3IqsmTJ5_Vhw1Fk-15" target="wLUMQ3IqsmTJ5_Vhw1Fk-21">
          <mxGeometry width="50" height="50" relative="1" as="geometry">
            <mxPoint x="180" y="800" as="sourcePoint" />
            <mxPoint x="230" y="750" as="targetPoint" />
            <Array as="points">
              <mxPoint x="380" y="820" />
            </Array>
          </mxGeometry>
        </mxCell>
        <mxCell id="wLUMQ3IqsmTJ5_Vhw1Fk-28" value="FOMO starts setting in" style="rounded=1;whiteSpace=wrap;html=1;" vertex="1" parent="WIyWlLk6GJQsqaUBKTNV-1">
          <mxGeometry x="640" y="450" width="120" height="60" as="geometry" />
        </mxCell>
        <mxCell id="wLUMQ3IqsmTJ5_Vhw1Fk-30" value="" style="endArrow=classic;html=1;entryX=1;entryY=0.25;entryDx=0;entryDy=0;exitX=0.342;exitY=1.05;exitDx=0;exitDy=0;exitPerimeter=0;" edge="1" parent="WIyWlLk6GJQsqaUBKTNV-1" source="wLUMQ3IqsmTJ5_Vhw1Fk-28" target="wLUMQ3IqsmTJ5_Vhw1Fk-15">
          <mxGeometry width="50" height="50" relative="1" as="geometry">
            <mxPoint x="490" y="585" as="sourcePoint" />
            <mxPoint x="540" y="535" as="targetPoint" />
            <Array as="points">
              <mxPoint x="681" y="585" />
            </Array>
          </mxGeometry>
        </mxCell>
      </root>
    </mxGraphModel>
  </diagram>
</mxfile>
